<svg width="91" height="19" viewBox="0 0 91 19" fill="none" xmlns="http://www.w3.org/2000/svg">
<path d="M24.3 4.75H20.25V2.375C20.25 1.06875 19.035 0 17.55 0H9.45C7.965 0 6.75 1.06875 6.75 2.375V4.75H2.7C1.215 4.75 0 5.81875 0 7.125V19H27V7.125C27 5.81875 25.785 4.75 24.3 4.75ZM9.45 2.375H17.55V4.75H9.45V2.375ZM24.3 16.625H2.7V13.0625H5.4V14.25H8.1V13.0625H18.9V14.25H21.6V13.0625H24.3V16.625ZM21.6 10.6875V9.5H18.9V10.6875H8.1V9.5H5.4V10.6875H2.7V7.125H24.3V10.6875H21.6Z" fill="black"/>
<path d="M36.1011 17H33.7271V7.479H30.1494V5.09668H39.6704V7.479H36.1011V17ZM47.8882 12.4761C47.8882 13.1401 47.7692 13.7599 47.5312 14.3354C47.2933 14.9054 46.9696 15.4007 46.5601 15.8213C46.1506 16.2363 45.6691 16.5656 45.1157 16.8091C44.5679 17.047 43.9785 17.166 43.3477 17.166C42.7223 17.166 42.133 17.047 41.5796 16.8091C41.0317 16.5656 40.5503 16.2363 40.1353 15.8213C39.7257 15.4007 39.402 14.9054 39.1641 14.3354C38.9261 13.7599 38.8071 13.1401 38.8071 12.4761C38.8071 11.8009 38.9261 11.1756 39.1641 10.6001C39.402 10.0246 39.7257 9.5293 40.1353 9.11426C40.5503 8.69368 41.0317 8.36442 41.5796 8.12646C42.133 7.88851 42.7223 7.76953 43.3477 7.76953C43.9785 7.76953 44.5679 7.88298 45.1157 8.10986C45.6691 8.33122 46.1506 8.64941 46.5601 9.06445C46.9696 9.47396 47.2933 9.96924 47.5312 10.5503C47.7692 11.1258 47.8882 11.7677 47.8882 12.4761ZM45.6055 12.4761C45.6055 12.1108 45.5446 11.7816 45.4229 11.4883C45.3066 11.1895 45.1462 10.9349 44.9414 10.7246C44.7367 10.5088 44.4959 10.3455 44.2192 10.2349C43.9481 10.1187 43.6576 10.0605 43.3477 10.0605C43.0378 10.0605 42.7445 10.1187 42.4678 10.2349C42.1966 10.3455 41.9587 10.5088 41.7539 10.7246C41.5547 10.9349 41.397 11.1895 41.2808 11.4883C41.1646 11.7816 41.1064 12.1108 41.1064 12.4761C41.1064 12.8192 41.1646 13.1374 41.2808 13.4307C41.397 13.724 41.5547 13.9785 41.7539 14.1943C41.9587 14.4102 42.1966 14.5817 42.4678 14.709C42.7445 14.8307 43.0378 14.8916 43.3477 14.8916C43.6576 14.8916 43.9481 14.8335 44.2192 14.7173C44.4959 14.6011 44.7367 14.4378 44.9414 14.2275C45.1462 14.0173 45.3066 13.7627 45.4229 13.4639C45.5446 13.165 45.6055 12.8358 45.6055 12.4761ZM57.7329 12.4761C57.7329 13.1401 57.6139 13.7599 57.376 14.3354C57.138 14.9054 56.8143 15.4007 56.4048 15.8213C55.9953 16.2363 55.5138 16.5656 54.9604 16.8091C54.4126 17.047 53.8232 17.166 53.1924 17.166C52.5671 17.166 51.9777 17.047 51.4243 16.8091C50.8765 16.5656 50.395 16.2363 49.98 15.8213C49.5705 15.4007 49.2467 14.9054 49.0088 14.3354C48.7708 13.7599 48.6519 13.1401 48.6519 12.4761C48.6519 11.8009 48.7708 11.1756 49.0088 10.6001C49.2467 10.0246 49.5705 9.5293 49.98 9.11426C50.395 8.69368 50.8765 8.36442 51.4243 8.12646C51.9777 7.88851 52.5671 7.76953 53.1924 7.76953C53.8232 7.76953 54.4126 7.88298 54.9604 8.10986C55.5138 8.33122 55.9953 8.64941 56.4048 9.06445C56.8143 9.47396 57.138 9.96924 57.376 10.5503C57.6139 11.1258 57.7329 11.7677 57.7329 12.4761ZM55.4502 12.4761C55.4502 12.1108 55.3893 11.7816 55.2676 11.4883C55.1514 11.1895 54.9909 10.9349 54.7861 10.7246C54.5814 10.5088 54.3407 10.3455 54.064 10.2349C53.7928 10.1187 53.5023 10.0605 53.1924 10.0605C52.8825 10.0605 52.5892 10.1187 52.3125 10.2349C52.0413 10.3455 51.8034 10.5088 51.5986 10.7246C51.3994 10.9349 51.2417 11.1895 51.1255 11.4883C51.0093 11.7816 50.9512 12.1108 50.9512 12.4761C50.9512 12.8192 51.0093 13.1374 51.1255 13.4307C51.2417 13.724 51.3994 13.9785 51.5986 14.1943C51.8034 14.4102 52.0413 14.5817 52.3125 14.709C52.5892 14.8307 52.8825 14.8916 53.1924 14.8916C53.5023 14.8916 53.7928 14.8335 54.064 14.7173C54.3407 14.6011 54.5814 14.4378 54.7861 14.2275C54.9909 14.0173 55.1514 13.7627 55.2676 13.4639C55.3893 13.165 55.4502 12.8358 55.4502 12.4761ZM61.269 17H58.9863V4.57373H61.269V17ZM71.9023 12.4761C71.9023 13.1733 71.7834 13.8097 71.5454 14.3853C71.3075 14.9608 70.9837 15.4561 70.5742 15.8711C70.1647 16.2806 69.6833 16.5988 69.1299 16.8257C68.582 17.0526 67.9927 17.166 67.3618 17.166C66.7365 17.166 66.1471 17.0498 65.5938 16.8174C65.0459 16.585 64.5645 16.2612 64.1494 15.8462C63.7399 15.4312 63.4162 14.9386 63.1782 14.3687C62.9403 13.7931 62.8213 13.1623 62.8213 12.4761V4.57373H65.0957V8.72412C65.2174 8.56917 65.3641 8.43083 65.5356 8.30908C65.7127 8.18734 65.9009 8.08773 66.1001 8.01025C66.3049 7.93278 66.5151 7.87467 66.731 7.83594C66.9468 7.79167 67.1571 7.76953 67.3618 7.76953C67.9927 7.76953 68.582 7.88851 69.1299 8.12646C69.6833 8.35889 70.1647 8.68538 70.5742 9.10596C70.9837 9.52653 71.3075 10.0246 71.5454 10.6001C71.7834 11.1701 71.9023 11.7954 71.9023 12.4761ZM69.6196 12.4761C69.6196 12.133 69.5588 11.8148 69.437 11.5215C69.3208 11.2227 69.1603 10.9653 68.9556 10.7495C68.7508 10.5337 68.5101 10.3649 68.2334 10.2432C67.9622 10.1214 67.6717 10.0605 67.3618 10.0605C67.0519 10.0605 66.7586 10.1297 66.4819 10.2681C66.2108 10.4009 65.9728 10.5807 65.7681 10.8076C65.5633 11.029 65.4028 11.2863 65.2866 11.5796C65.1704 11.8674 65.1123 12.1662 65.1123 12.4761C65.1123 12.8192 65.1704 13.1374 65.2866 13.4307C65.4028 13.724 65.5633 13.9785 65.7681 14.1943C65.9728 14.4102 66.2108 14.5817 66.4819 14.709C66.7586 14.8307 67.0519 14.8916 67.3618 14.8916C67.6717 14.8916 67.9622 14.8307 68.2334 14.709C68.5101 14.5817 68.7508 14.4102 68.9556 14.1943C69.1603 13.9785 69.3208 13.724 69.437 13.4307C69.5588 13.1374 69.6196 12.8192 69.6196 12.4761ZM81.7554 12.4761C81.7554 13.1401 81.6364 13.7599 81.3984 14.3354C81.1605 14.9054 80.8368 15.4007 80.4272 15.8213C80.0177 16.2363 79.5363 16.5656 78.9829 16.8091C78.4351 17.047 77.8457 17.166 77.2148 17.166C76.5895 17.166 76.0002 17.047 75.4468 16.8091C74.8989 16.5656 74.4175 16.2363 74.0024 15.8213C73.5929 15.4007 73.2692 14.9054 73.0312 14.3354C72.7933 13.7599 72.6743 13.1401 72.6743 12.4761C72.6743 11.8009 72.7933 11.1756 73.0312 10.6001C73.2692 10.0246 73.5929 9.5293 74.0024 9.11426C74.4175 8.69368 74.8989 8.36442 75.4468 8.12646C76.0002 7.88851 76.5895 7.76953 77.2148 7.76953C77.8457 7.76953 78.4351 7.88298 78.9829 8.10986C79.5363 8.33122 80.0177 8.64941 80.4272 9.06445C80.8368 9.47396 81.1605 9.96924 81.3984 10.5503C81.6364 11.1258 81.7554 11.7677 81.7554 12.4761ZM79.4727 12.4761C79.4727 12.1108 79.4118 11.7816 79.29 11.4883C79.1738 11.1895 79.0133 10.9349 78.8086 10.7246C78.6038 10.5088 78.3631 10.3455 78.0864 10.2349C77.8153 10.1187 77.5247 10.0605 77.2148 10.0605C76.9049 10.0605 76.6117 10.1187 76.335 10.2349C76.0638 10.3455 75.8258 10.5088 75.6211 10.7246C75.4219 10.9349 75.2642 11.1895 75.1479 11.4883C75.0317 11.7816 74.9736 12.1108 74.9736 12.4761C74.9736 12.8192 75.0317 13.1374 75.1479 13.4307C75.2642 13.724 75.4219 13.9785 75.6211 14.1943C75.8258 14.4102 76.0638 14.5817 76.335 14.709C76.6117 14.8307 76.9049 14.8916 77.2148 14.8916C77.5247 14.8916 77.8153 14.8335 78.0864 14.7173C78.3631 14.6011 78.6038 14.4378 78.8086 14.2275C79.0133 14.0173 79.1738 13.7627 79.29 13.4639C79.4118 13.165 79.4727 12.8358 79.4727 12.4761ZM90.8281 17H88.0557L86.2876 14.2773L84.5029 17H81.7305L84.9761 12.4429L81.7305 8.06006H84.5029L86.2876 10.6084L88.0557 8.06006H90.8281L87.5742 12.4429L90.8281 17Z" fill="black"/>
</svg>
